<svg id="visual" viewBox="0 0 1280 900" width="1280" height="900" xmlns="http://www.w3.org/2000/svg" xmlns:xlink="http://www.w3.org/1999/xlink" version="1.1"><path d="M0 262L56 262L56 253L111 253L111 217L167 217L167 217L223 217L223 217L278 217L278 100L334 100L334 163L390 163L390 190L445 190L445 145L501 145L501 118L557 118L557 208L612 208L612 136L668 136L668 244L723 244L723 199L779 199L779 208L835 208L835 181L890 181L890 154L946 154L946 154L1002 154L1002 190L1057 190L1057 145L1113 145L1113 235L1169 235L1169 136L1224 136L1224 262L1280 262L1280 271L1280 0L1280 0L1224 0L1224 0L1169 0L1169 0L1113 0L1113 0L1057 0L1057 0L1002 0L1002 0L946 0L946 0L890 0L890 0L835 0L835 0L779 0L779 0L723 0L723 0L668 0L668 0L612 0L612 0L557 0L557 0L501 0L501 0L445 0L445 0L390 0L390 0L334 0L334 0L278 0L278 0L223 0L223 0L167 0L167 0L111 0L111 0L56 0L56 0L0 0Z" fill="#0e0e0e"></path><path d="M0 298L56 298L56 307L111 307L111 244L167 244L167 244L223 244L223 244L278 244L278 172L334 172L334 217L390 217L390 235L445 235L445 181L501 181L501 172L557 172L557 253L612 253L612 208L668 208L668 289L723 289L723 271L779 271L779 262L835 262L835 217L890 217L890 181L946 181L946 226L1002 226L1002 262L1057 262L1057 208L1113 208L1113 280L1169 280L1169 190L1224 190L1224 325L1280 325L1280 325L1280 269L1280 260L1224 260L1224 134L1169 134L1169 233L1113 233L1113 143L1057 143L1057 188L1002 188L1002 152L946 152L946 152L890 152L890 179L835 179L835 206L779 206L779 197L723 197L723 242L668 242L668 134L612 134L612 206L557 206L557 116L501 116L501 143L445 143L445 188L390 188L390 161L334 161L334 98L278 98L278 215L223 215L223 215L167 215L167 215L111 215L111 251L56 251L56 260L0 260Z" fill="#111111"></path><path d="M0 316L56 316L56 343L111 343L111 289L167 289L167 262L223 262L223 280L278 280L278 190L334 190L334 253L390 253L390 262L445 262L445 199L501 199L501 190L557 190L557 271L612 271L612 235L668 235L668 325L723 325L723 316L779 316L779 307L835 307L835 235L890 235L890 217L946 217L946 244L1002 244L1002 280L1057 280L1057 226L1113 226L1113 316L1169 316L1169 235L1224 235L1224 370L1280 370L1280 361L1280 323L1280 323L1224 323L1224 188L1169 188L1169 278L1113 278L1113 206L1057 206L1057 260L1002 260L1002 224L946 224L946 179L890 179L890 215L835 215L835 260L779 260L779 269L723 269L723 287L668 287L668 206L612 206L612 251L557 251L557 170L501 170L501 179L445 179L445 233L390 233L390 215L334 215L334 170L278 170L278 242L223 242L223 242L167 242L167 242L111 242L111 305L56 305L56 296L0 296Z" fill="#141414"></path><path d="M0 379L56 379L56 397L111 397L111 361L167 361L167 343L223 343L223 361L278 361L278 262L334 262L334 289L390 289L390 316L445 316L445 280L501 280L501 262L557 262L557 352L612 352L612 280L668 280L668 361L723 361L723 379L779 379L779 388L835 388L835 271L890 271L890 262L946 262L946 298L1002 298L1002 316L1057 316L1057 289L1113 289L1113 388L1169 388L1169 298L1224 298L1224 424L1280 424L1280 415L1280 359L1280 368L1224 368L1224 233L1169 233L1169 314L1113 314L1113 224L1057 224L1057 278L1002 278L1002 242L946 242L946 215L890 215L890 233L835 233L835 305L779 305L779 314L723 314L723 323L668 323L668 233L612 233L612 269L557 269L557 188L501 188L501 197L445 197L445 260L390 260L390 251L334 251L334 188L278 188L278 278L223 278L223 260L167 260L167 287L111 287L111 341L56 341L56 314L0 314Z" fill="#161616"></path><path d="M0 406L56 406L56 415L111 415L111 397L167 397L167 379L223 379L223 397L278 397L278 298L334 298L334 307L390 307L390 352L445 352L445 316L501 316L501 280L557 280L557 379L612 379L612 298L668 298L668 397L723 397L723 406L779 406L779 406L835 406L835 289L890 289L890 307L946 307L946 325L1002 325L1002 334L1057 334L1057 316L1113 316L1113 433L1169 433L1169 316L1224 316L1224 460L1280 460L1280 451L1280 413L1280 422L1224 422L1224 296L1169 296L1169 386L1113 386L1113 287L1057 287L1057 314L1002 314L1002 296L946 296L946 260L890 260L890 269L835 269L835 386L779 386L779 377L723 377L723 359L668 359L668 278L612 278L612 350L557 350L557 260L501 260L501 278L445 278L445 314L390 314L390 287L334 287L334 260L278 260L278 359L223 359L223 341L167 341L167 359L111 359L111 395L56 395L56 377L0 377Z" fill="#191919"></path><path d="M0 514L56 514L56 541L111 541L111 478L167 478L167 469L223 469L223 469L278 469L278 433L334 433L334 469L390 469L390 505L445 505L445 442L501 442L501 388L557 388L557 469L612 469L612 388L668 388L668 496L723 496L723 505L779 505L779 496L835 496L835 424L890 424L890 415L946 415L946 406L1002 406L1002 424L1057 424L1057 415L1113 415L1113 532L1169 532L1169 424L1224 424L1224 532L1280 532L1280 523L1280 449L1280 458L1224 458L1224 314L1169 314L1169 431L1113 431L1113 314L1057 314L1057 332L1002 332L1002 323L946 323L946 305L890 305L890 287L835 287L835 404L779 404L779 404L723 404L723 395L668 395L668 296L612 296L612 377L557 377L557 278L501 278L501 314L445 314L445 350L390 350L390 305L334 305L334 296L278 296L278 395L223 395L223 377L167 377L167 395L111 395L111 413L56 413L56 404L0 404Z" fill="#1b1b1b"></path><path d="M0 649L56 649L56 649L111 649L111 631L167 631L167 613L223 613L223 649L278 649L278 622L334 622L334 658L390 658L390 649L445 649L445 595L501 595L501 586L557 586L557 586L612 586L612 568L668 568L668 631L723 631L723 640L779 640L779 613L835 613L835 577L890 577L890 595L946 595L946 658L1002 658L1002 622L1057 622L1057 622L1113 622L1113 667L1169 667L1169 676L1224 676L1224 649L1280 649L1280 640L1280 521L1280 530L1224 530L1224 422L1169 422L1169 530L1113 530L1113 413L1057 413L1057 422L1002 422L1002 404L946 404L946 413L890 413L890 422L835 422L835 494L779 494L779 503L723 503L723 494L668 494L668 386L612 386L612 467L557 467L557 386L501 386L501 440L445 440L445 503L390 503L390 467L334 467L334 431L278 431L278 467L223 467L223 467L167 467L167 476L111 476L111 539L56 539L56 512L0 512Z" fill="#1d1d1d"></path><path d="M0 703L56 703L56 730L111 730L111 712L167 712L167 685L223 685L223 712L278 712L278 712L334 712L334 721L390 721L390 739L445 739L445 712L501 712L501 694L557 694L557 694L612 694L612 667L668 667L668 703L723 703L723 703L779 703L779 712L835 712L835 703L890 703L890 694L946 694L946 703L1002 703L1002 694L1057 694L1057 703L1113 703L1113 712L1169 712L1169 748L1224 748L1224 766L1280 766L1280 739L1280 638L1280 647L1224 647L1224 674L1169 674L1169 665L1113 665L1113 620L1057 620L1057 620L1002 620L1002 656L946 656L946 593L890 593L890 575L835 575L835 611L779 611L779 638L723 638L723 629L668 629L668 566L612 566L612 584L557 584L557 584L501 584L501 593L445 593L445 647L390 647L390 656L334 656L334 620L278 620L278 647L223 647L223 611L167 611L167 629L111 629L111 647L56 647L56 647L0 647Z" fill="#202020"></path><path d="M0 766L56 766L56 784L111 784L111 766L167 766L167 766L223 766L223 748L278 748L278 784L334 784L334 802L390 802L390 811L445 811L445 775L501 775L501 793L557 793L557 748L612 748L612 757L668 757L668 757L723 757L723 775L779 775L779 784L835 784L835 766L890 766L890 775L946 775L946 775L1002 775L1002 784L1057 784L1057 793L1113 793L1113 775L1169 775L1169 793L1224 793L1224 811L1280 811L1280 820L1280 737L1280 764L1224 764L1224 746L1169 746L1169 710L1113 710L1113 701L1057 701L1057 692L1002 692L1002 701L946 701L946 692L890 692L890 701L835 701L835 710L779 710L779 701L723 701L723 701L668 701L668 665L612 665L612 692L557 692L557 692L501 692L501 710L445 710L445 737L390 737L390 719L334 719L334 710L278 710L278 710L223 710L223 683L167 683L167 710L111 710L111 728L56 728L56 701L0 701Z" fill="#222222"></path><path d="M0 820L56 820L56 820L111 820L111 811L167 811L167 820L223 820L223 784L278 784L278 838L334 838L334 847L390 847L390 838L445 838L445 811L501 811L501 820L557 820L557 775L612 775L612 811L668 811L668 793L723 793L723 820L779 820L779 811L835 811L835 820L890 820L890 811L946 811L946 820L1002 820L1002 811L1057 811L1057 829L1113 829L1113 829L1169 829L1169 820L1224 820L1224 838L1280 838L1280 847L1280 818L1280 809L1224 809L1224 791L1169 791L1169 773L1113 773L1113 791L1057 791L1057 782L1002 782L1002 773L946 773L946 773L890 773L890 764L835 764L835 782L779 782L779 773L723 773L723 755L668 755L668 755L612 755L612 746L557 746L557 791L501 791L501 773L445 773L445 809L390 809L390 800L334 800L334 782L278 782L278 746L223 746L223 764L167 764L167 764L111 764L111 782L56 782L56 764L0 764Z" fill="#252525"></path><path d="M0 865L56 865L56 874L111 874L111 865L167 865L167 856L223 856L223 838L278 838L278 865L334 865L334 874L390 874L390 865L445 865L445 856L501 856L501 847L557 847L557 838L612 838L612 856L668 856L668 838L723 838L723 847L779 847L779 847L835 847L835 874L890 874L890 847L946 847L946 865L1002 865L1002 856L1057 856L1057 856L1113 856L1113 856L1169 856L1169 847L1224 847L1224 865L1280 865L1280 874L1280 845L1280 836L1224 836L1224 818L1169 818L1169 827L1113 827L1113 827L1057 827L1057 809L1002 809L1002 818L946 818L946 809L890 809L890 818L835 818L835 809L779 809L779 818L723 818L723 791L668 791L668 809L612 809L612 773L557 773L557 818L501 818L501 809L445 809L445 836L390 836L390 845L334 845L334 836L278 836L278 782L223 782L223 818L167 818L167 809L111 809L111 818L56 818L56 818L0 818Z" fill="#272727"></path><path d="M0 901L56 901L56 901L111 901L111 901L167 901L167 901L223 901L223 901L278 901L278 901L334 901L334 901L390 901L390 901L445 901L445 901L501 901L501 901L557 901L557 901L612 901L612 901L668 901L668 901L723 901L723 901L779 901L779 901L835 901L835 901L890 901L890 901L946 901L946 901L1002 901L1002 901L1057 901L1057 901L1113 901L1113 901L1169 901L1169 901L1224 901L1224 901L1280 901L1280 901L1280 872L1280 863L1224 863L1224 845L1169 845L1169 854L1113 854L1113 854L1057 854L1057 854L1002 854L1002 863L946 863L946 845L890 845L890 872L835 872L835 845L779 845L779 845L723 845L723 836L668 836L668 854L612 854L612 836L557 836L557 845L501 845L501 854L445 854L445 863L390 863L390 872L334 872L334 863L278 863L278 836L223 836L223 854L167 854L167 863L111 863L111 872L56 872L56 863L0 863Z" fill="#2a2a2a"></path></svg>